<svg width="246" height="65" viewBox="0 0 246 65" fill="none" xmlns="http://www.w3.org/2000/svg">
<path d="M74.7101 36.3796L81.5701 10.7096L88.4401 36.3796H95.9201L105.52 0.619629H98.5201L91.8701 27.4796L84.9801 0.619629H78.1601L71.2701 27.4796L64.6301 0.619629H57.6201L67.2201 36.3796H74.7101Z" fill="#E0B853"/>
<path d="M114.84 0.619629H108.26V36.3796H114.84V0.619629Z" fill="#E0B853"/>
<path d="M149.16 0.619629H142.63V23.6196L125.59 0.619629H120.45V36.3796H127.03V12.9996L143.97 36.3796H149.16V0.619629Z" fill="#E0B853"/>
<path d="M187.081 27.3598C188.011 25.2498 188.47 22.8198 188.47 20.0598V16.4598H171.67V21.9798H181.94V22.1198C181.94 23.9398 181.471 25.5198 180.521 26.8498C179.581 28.1798 178.34 29.1998 176.8 29.9198C175.26 30.6398 173.6 30.9998 171.81 30.9998C169.57 30.9998 167.59 30.4698 165.86 29.4198C164.13 28.3598 162.78 26.8998 161.8 25.0298C160.82 23.1598 160.341 20.9698 160.341 18.4798C160.341 15.9898 160.81 13.8098 161.76 11.9498C162.7 10.0898 164.03 8.6398 165.74 7.5798C167.45 6.5198 169.43 5.9998 171.67 5.9998C173.91 5.9998 175.89 6.5798 177.5 7.7498C179.12 8.9198 180.26 10.4098 180.93 12.2398L186.74 9.4598C186.13 7.7598 185.12 6.1998 183.72 4.7798C182.31 3.3598 180.59 2.2098 178.56 1.3498C176.53 0.489805 174.23 0.0498047 171.67 0.0498047C169.11 0.0498047 166.7 0.509805 164.54 1.4198C162.38 2.3298 160.49 3.6098 158.88 5.2598C157.26 6.9098 156.01 8.8598 155.11 11.1198C154.21 13.3798 153.771 15.8298 153.771 18.4898C153.771 21.1498 154.231 23.5898 155.141 25.8298C156.051 28.0698 157.33 30.0198 158.98 31.6898C160.63 33.3498 162.54 34.6498 164.72 35.5798C166.9 36.5098 169.26 36.9698 171.82 36.9698C173.93 36.9698 175.981 36.6198 177.961 35.9098C179.941 35.2098 181.73 34.1298 183.31 32.6898C184.89 31.2498 186.151 29.4698 187.081 27.3598Z" fill="#E0B853"/>
<path d="M217.65 26.4898C217.65 24.0898 216.94 22.0698 215.51 20.4398C214.09 18.8098 211.95 17.5298 209.1 16.5998L202.52 14.5398C201.21 14.1198 200.23 13.5398 199.59 12.7898C198.95 12.0398 198.63 11.1698 198.63 10.1698C198.63 9.3098 198.86 8.5398 199.33 7.8698C199.8 7.1998 200.44 6.6798 201.27 6.3098C202.1 5.9398 203.06 5.7598 204.15 5.7598C205.97 5.7598 207.6 6.2598 209.02 7.2498C210.44 8.2398 211.49 9.6198 212.16 11.3798L217.58 8.9798C216.94 7.1898 215.97 5.6298 214.68 4.2998C213.38 2.9698 211.84 1.9298 210.05 1.1798C208.26 0.429805 206.29 0.0498047 204.15 0.0498047C201.81 0.0498047 199.74 0.489805 197.93 1.3698C196.12 2.2498 194.71 3.4698 193.68 5.0398C192.66 6.6098 192.14 8.4198 192.14 10.4598C192.14 12.8298 192.85 14.8698 194.28 16.5798C195.71 18.2898 197.81 19.5798 200.59 20.4398L207.45 22.6498C208.7 23.0698 209.63 23.6098 210.26 24.2798C210.89 24.9498 211.2 25.8198 211.2 26.8698C211.2 27.7698 210.97 28.5298 210.5 29.1698C210.04 29.8098 209.38 30.3098 208.53 30.6798C207.68 31.0498 206.68 31.2298 205.53 31.2298C203.48 31.2298 201.64 30.6498 200.01 29.4798C198.38 28.3098 197.13 26.6998 196.27 24.6598L190.8 27.0098C191.47 28.9898 192.5 30.7298 193.9 32.2198C195.29 33.7098 196.96 34.8698 198.89 35.6998C200.83 36.5298 202.91 36.9498 205.15 36.9498C207.65 36.9498 209.82 36.4998 211.68 35.6098C213.54 34.7098 214.99 33.4798 216.05 31.9098C217.11 30.3398 217.63 28.5298 217.63 26.4898H217.65Z" fill="#E0B853"/>
<path d="M244.12 5.8298C243.05 4.0498 241.58 2.6498 239.73 1.6098C237.87 0.569805 235.73 0.0498047 233.3 0.0498047C230.87 0.0498047 228.76 0.569805 226.89 1.6098C225.02 2.6498 223.55 4.0698 222.47 5.8598C221.4 7.6498 220.86 9.7198 220.86 12.0498C220.86 14.1898 221.35 16.1198 222.32 17.8298C223.3 19.5398 224.63 20.8898 226.33 21.8898C228.03 22.8798 229.96 23.3798 232.14 23.3798C232.65 23.3798 233.13 23.3398 233.58 23.2598L223.36 36.3898H231.18L241.16 23.4298C242.38 21.7998 243.31 20.3298 243.97 19.0398C244.63 17.7398 245.08 16.5198 245.34 15.3698C245.6 14.2198 245.72 13.0698 245.72 11.9098C245.72 9.6398 245.18 7.6098 244.11 5.8398L244.12 5.8298ZM238.36 15.0698C237.83 15.9698 237.14 16.6598 236.27 17.1598C235.41 17.6598 234.41 17.8998 233.29 17.8998C232.17 17.8998 231.21 17.6498 230.31 17.1598C229.41 16.6598 228.7 15.9698 228.17 15.0698C227.64 14.1698 227.38 13.1298 227.38 11.9498C227.38 10.7698 227.64 9.7198 228.17 8.8098C228.7 7.8998 229.41 7.1898 230.31 6.6998C231.21 6.1998 232.2 5.9598 233.29 5.9598C234.38 5.9598 235.36 6.2098 236.24 6.6998C237.12 7.1998 237.82 7.8998 238.35 8.8098C238.88 9.7198 239.14 10.7698 239.14 11.9498C239.14 13.1298 238.88 14.1698 238.35 15.0698H238.36Z" fill="#E0B853"/>
<path d="M63.0701 49.6296C63.9401 49.0996 64.9401 48.8296 66.0701 48.8296C67.2001 48.8296 68.1701 49.1196 68.9701 49.6896C69.7701 50.2596 70.3501 50.9996 70.7001 51.8996L73.1501 50.7796C72.8601 49.9996 72.3901 49.2796 71.7301 48.5996C71.0701 47.9196 70.2601 47.3896 69.3001 46.9696C68.3401 46.5596 67.2601 46.3496 66.0701 46.3496C64.8801 46.3496 63.7201 46.5696 62.6901 46.9996C61.6601 47.4396 60.7701 48.0496 60.0101 48.8296C59.2501 49.6196 58.6701 50.5496 58.2501 51.6296C57.8301 52.7096 57.6201 53.8796 57.6201 55.1496C57.6201 56.4196 57.8301 57.6096 58.2501 58.6796C58.6701 59.7496 59.2602 60.6796 60.0302 61.4596C60.8002 62.2496 61.6901 62.8596 62.7101 63.2996C63.7301 63.7396 64.8601 63.9596 66.0801 63.9596C67.3001 63.9596 68.3501 63.7496 69.3101 63.3396C70.2701 62.9296 71.0801 62.3896 71.7401 61.7096C72.4001 61.0296 72.8701 60.3196 73.1601 59.5596L70.7101 58.4096C70.3601 59.3296 69.7801 60.0696 68.9801 60.6296C68.1801 61.1996 67.2101 61.4796 66.0801 61.4796C64.9501 61.4796 63.9501 61.2196 63.0801 60.6896C62.2101 60.1596 61.5301 59.4196 61.0501 58.4696C60.5701 57.5196 60.3301 56.3996 60.3301 55.1396C60.3301 53.8796 60.5701 52.7896 61.0501 51.8396C61.5301 50.8896 62.2101 50.1496 63.0801 49.6196L63.0701 49.6296Z" fill="#E0B853"/>
<path d="M90.2399 48.8696C89.4399 48.0796 88.5099 47.4696 87.4399 47.0296C86.3699 46.5896 85.2199 46.3696 83.9699 46.3696C82.7199 46.3696 81.5599 46.5896 80.4999 47.0196C79.4399 47.4596 78.51 48.0696 77.7 48.8596C76.9 49.6496 76.28 50.5896 75.83 51.6596C75.39 52.7296 75.1699 53.8996 75.1699 55.1696C75.1699 56.4396 75.3999 57.6096 75.8499 58.6796C76.2999 59.7496 76.9199 60.6796 77.7199 61.4796C78.5199 62.2796 79.45 62.8896 80.52 63.3396C81.59 63.7796 82.7399 63.9996 83.9799 63.9996C85.2199 63.9996 86.3699 63.7796 87.4399 63.3396C88.5099 62.8996 89.4399 62.2796 90.2399 61.4796C91.0299 60.6896 91.6599 59.7496 92.1099 58.6796C92.5599 57.6096 92.7899 56.4396 92.7899 55.1696C92.7899 53.8996 92.5699 52.7296 92.1299 51.6596C91.6899 50.5896 91.0599 49.6596 90.2599 48.8796L90.2399 48.8696ZM89.6199 57.6696C89.3199 58.4396 88.8999 59.1096 88.3499 59.6896C87.7999 60.2696 87.1499 60.7096 86.4099 61.0296C85.6699 61.3496 84.8599 61.5096 83.9699 61.5096C83.0799 61.5096 82.2899 61.3496 81.5399 61.0296C80.7899 60.7096 80.14 60.2596 79.59 59.6896C79.04 59.1196 78.6199 58.4496 78.3199 57.6696C78.0199 56.8996 77.8699 56.0596 77.8699 55.1596C77.8699 54.2596 78.0199 53.4496 78.3199 52.6696C78.6199 51.8996 79.04 51.2196 79.59 50.6396C80.14 50.0596 80.78 49.6096 81.53 49.2996C82.28 48.9896 83.0799 48.8296 83.9699 48.8296C84.8599 48.8296 85.6699 48.9896 86.4099 49.2996C87.1499 49.6096 87.7999 50.0596 88.3499 50.6396C88.8999 51.2196 89.3199 51.8996 89.6199 52.6696C89.9199 53.4396 90.0699 54.2696 90.0699 55.1596C90.0699 56.0496 89.9199 56.8996 89.6199 57.6696Z" fill="#E0B853"/>
<path d="M106.27 58.3999L97.7503 46.6299H95.5703V63.6999H98.2703V51.7699L106.8 63.6999H108.97V46.6299H106.27V58.3999Z" fill="#E0B853"/>
<path d="M119.97 54.4398L116.97 53.4998C116.27 53.2898 115.74 52.9698 115.39 52.5398C115.04 52.1098 114.86 51.6198 114.86 51.0698C114.86 50.5998 114.98 50.1798 115.21 49.8298C115.45 49.4798 115.78 49.2098 116.21 49.0198C116.64 48.8298 117.13 48.7298 117.7 48.7298C118.63 48.7298 119.45 48.9698 120.15 49.4498C120.85 49.9298 121.38 50.6198 121.73 51.5198L123.98 50.5598C123.71 49.7398 123.27 49.0098 122.66 48.3698C122.05 47.7298 121.33 47.2398 120.49 46.8798C119.65 46.5198 118.72 46.3398 117.69 46.3398C116.61 46.3398 115.65 46.5498 114.81 46.9598C113.98 47.3698 113.33 47.9498 112.86 48.6798C112.39 49.4098 112.16 50.2498 112.16 51.1998C112.16 52.2998 112.49 53.2598 113.16 54.0898C113.82 54.9098 114.8 55.5298 116.08 55.9198L119.31 56.9298C119.98 57.1298 120.49 57.4198 120.85 57.7898C121.21 58.1598 121.38 58.6598 121.38 59.2698C121.38 59.7298 121.25 60.1298 121 60.4798C120.75 60.8298 120.4 61.0998 119.95 61.2898C119.5 61.4798 118.97 61.5798 118.36 61.5798C117.32 61.5798 116.4 61.2998 115.61 60.7298C114.82 60.1698 114.21 59.3598 113.8 58.2998L111.51 59.2598C111.8 60.1798 112.27 60.9898 112.92 61.6998C113.57 62.4098 114.35 62.9598 115.26 63.3598C116.17 63.7598 117.17 63.9598 118.25 63.9598C119.4 63.9598 120.4 63.7498 121.28 63.3298C122.16 62.9098 122.83 62.3298 123.33 61.5998C123.83 60.8698 124.07 60.0298 124.07 59.0798C124.07 57.9298 123.73 56.9798 123.04 56.1998C122.35 55.4298 121.33 54.8398 119.97 54.4198V54.4398Z" fill="#E0B853"/>
<path d="M137.09 57.6796C137.09 58.4296 136.93 59.0896 136.6 59.6696C136.27 60.2496 135.82 60.6996 135.26 61.0196C134.7 61.3396 134.03 61.4996 133.27 61.4996C132.51 61.4996 131.86 61.3396 131.29 61.0196C130.72 60.6996 130.26 60.2496 129.94 59.6696C129.61 59.0896 129.45 58.4296 129.45 57.6796V46.6396H126.75V57.7996C126.75 58.9896 127.02 60.0497 127.57 60.9897C128.12 61.9197 128.89 62.6596 129.88 63.1896C130.87 63.7196 132 63.9897 133.27 63.9897C134.54 63.9897 135.69 63.7196 136.67 63.1896C137.66 62.6596 138.42 61.9197 138.97 60.9897C139.52 60.0597 139.79 58.9996 139.79 57.7996V46.6396H137.09V57.6796Z" fill="#E0B853"/>
<path d="M145.66 46.6299H142.96V63.6999H153.04V61.2999H145.66V46.6299Z" fill="#E0B853"/>
<path d="M163.88 46.6299H152.19V49.0399H156.71V63.6999H159.41V49.0399H163.88V46.6299Z" fill="#E0B853"/>
<path d="M169.01 46.6299L163.01 63.6999H165.9L167.23 59.8699H174.17L175.45 63.6999H178.36L172.36 46.6299H169.02H169.01ZM168 57.4699L170.69 49.6399L173.34 57.4699H168Z" fill="#E0B853"/>
<path d="M190.85 58.3999L182.33 46.6299H180.15V63.6999H182.85V51.7699L191.38 63.6999H193.55V46.6299H190.85V58.3999Z" fill="#E0B853"/>
<path d="M201.8 49.6296C202.67 49.0996 203.67 48.8296 204.8 48.8296C205.93 48.8296 206.9 49.1196 207.7 49.6896C208.5 50.2596 209.08 50.9996 209.43 51.8996L211.88 50.7796C211.59 49.9996 211.11 49.2796 210.46 48.5996C209.81 47.9196 208.99 47.3896 208.03 46.9696C207.07 46.5496 205.99 46.3496 204.8 46.3496C203.61 46.3496 202.45 46.5696 201.42 46.9996C200.39 47.4396 199.49 48.0496 198.74 48.8296C197.98 49.6196 197.4 50.5496 196.98 51.6296C196.56 52.7096 196.35 53.8796 196.35 55.1496C196.35 56.4196 196.56 57.6096 196.98 58.6796C197.4 59.7496 197.99 60.6796 198.76 61.4596C199.52 62.2496 200.42 62.8596 201.44 63.2996C202.46 63.7396 203.59 63.9596 204.81 63.9596C206.03 63.9596 207.08 63.7496 208.04 63.3396C209 62.9296 209.81 62.3896 210.47 61.7096C211.13 61.0296 211.6 60.3196 211.89 59.5596L209.44 58.4096C209.09 59.3296 208.51 60.0696 207.71 60.6296C206.91 61.1996 205.94 61.4796 204.81 61.4796C203.68 61.4796 202.68 61.2196 201.81 60.6896C200.94 60.1596 200.26 59.4196 199.78 58.4696C199.3 57.5196 199.06 56.3996 199.06 55.1396C199.06 53.8796 199.3 52.7896 199.78 51.8396C200.26 50.8896 200.94 50.1496 201.81 49.6196L201.8 49.6296Z" fill="#E0B853"/>
<path d="M217.11 46.6299H214.41V63.6999H217.11V46.6299Z" fill="#E0B853"/>
<path d="M220.41 63.6999H231.64V61.2999H223.11V56.3499H231.18V53.9399H223.11V49.0399H231.64V46.6299H220.41V63.6999Z" fill="#E0B853"/>
<path d="M241.63 54.4398L238.63 53.4998C237.93 53.2898 237.4 52.9698 237.05 52.5398C236.7 52.1098 236.52 51.6198 236.52 51.0698C236.52 50.5998 236.64 50.1798 236.88 49.8298C237.12 49.4798 237.45 49.2098 237.88 49.0198C238.31 48.8298 238.8 48.7298 239.37 48.7298C240.3 48.7298 241.12 48.9698 241.82 49.4498C242.52 49.9298 243.05 50.6198 243.4 51.5198L245.65 50.5598C245.38 49.7398 244.93 49.0098 244.33 48.3698C243.73 47.7298 243 47.2398 242.16 46.8798C241.32 46.5198 240.39 46.3398 239.36 46.3398C238.27 46.3398 237.32 46.5498 236.48 46.9598C235.65 47.3698 235 47.9498 234.53 48.6798C234.06 49.4098 233.83 50.2498 233.83 51.1998C233.83 52.2998 234.16 53.2598 234.83 54.0898C235.5 54.9198 236.47 55.5298 237.75 55.9198L240.98 56.9298C241.65 57.1298 242.16 57.4198 242.51 57.7898C242.86 58.1598 243.04 58.6598 243.04 59.2698C243.04 59.7298 242.91 60.1298 242.66 60.4798C242.41 60.8298 242.06 61.0998 241.61 61.2898C241.16 61.4798 240.63 61.5798 240.02 61.5798C238.98 61.5798 238.06 61.2998 237.27 60.7298C236.48 60.1698 235.87 59.3598 235.46 58.2998L233.17 59.2598C233.46 60.1798 233.93 60.9898 234.58 61.6998C235.23 62.4098 236.01 62.9598 236.92 63.3598C237.83 63.7598 238.83 63.9598 239.91 63.9598C241.06 63.9598 242.06 63.7498 242.94 63.3298C243.81 62.9098 244.49 62.3298 244.99 61.5998C245.49 60.8698 245.73 60.0298 245.73 59.0798C245.73 57.9298 245.39 56.9798 244.7 56.1998C244.01 55.4198 242.99 54.8398 241.63 54.4198V54.4398Z" fill="#E0B853"/>
<path d="M33.4005 64.89L29.2805 58.04L25.0305 50.97L20.7905 58.81L17.4905 64.9H9.0705L12.1405 59.49L16.7705 51.32L19.3605 46.76L20.8705 44.09L21.1605 43.58L23.9005 38.74H23.8305C22.6405 38.99 21.4205 39.1 20.1905 39.1C9.60049 39.1 0.980469 30.33 0.980469 19.55C0.980469 8.77 9.62051 0 20.2105 0C28.4005 0 35.6905 5.29 38.3605 13.16C39.0605 15.21 39.4105 17.37 39.4105 19.55C39.4105 22.27 38.8705 24.9 37.8105 27.36L36.1205 30.48V30.5L29.0505 43.54L28.9405 43.74L30.9305 47.26L40.8805 64.89H33.4005ZM19.9205 7.15C13.2105 7.15 7.74048 12.71 7.74048 19.54C7.74048 26.37 13.2005 31.93 19.9205 31.93C26.6405 31.93 32.1005 26.37 32.1005 19.54C32.1005 12.71 26.6405 7.15 19.9205 7.15Z" fill="#E0B853"/>
<path d="M14.5002 47.1498L9.93024 55.4398L3.49023 43.5498H12.5502L14.4902 47.1398L14.5002 47.1498Z" fill="#E0B853"/>
<path d="M46.1604 43.5498L39.7104 55.4498L35.1904 47.0998L37.1204 43.5498H46.1704H46.1604Z" fill="#E0B853"/>
<path d="M28.7404 64.9198H21.9404L23.0004 62.8398L25.3104 58.2998L27.1704 61.8898L28.7404 64.9198Z" fill="#E0B853"/>
</svg>
