<svg width="246" height="65" viewBox="0 0 246 65" fill="none" xmlns="http://www.w3.org/2000/svg">
<path d="M98.5201 0.619629L91.8801 27.4796L84.9801 0.619629H78.1602L71.2701 27.4796L64.6301 0.619629H57.6201L67.2201 36.3796H74.7101L81.5701 10.7096L88.4401 36.3796H95.9202L105.52 0.619629H98.5201Z" fill="#E0B853"/>
<path d="M114.84 0.619629H108.26V36.3796H114.84V0.619629Z" fill="#E0B853"/>
<path d="M127.03 12.9996L143.97 36.3796H149.16V0.619629H142.63V23.6196L125.59 0.619629H120.45V36.3796H127.03V12.9996Z" fill="#E0B853"/>
<path d="M187.08 27.3598C188.01 25.2498 188.47 22.8198 188.47 20.0598V16.4598H171.671V21.9798H181.94V22.1198C181.94 23.9398 181.471 25.5198 180.521 26.8498C179.581 28.1798 178.341 29.1998 176.801 29.9198C175.261 30.6398 173.601 30.9998 171.811 30.9998C169.571 30.9998 167.59 30.4698 165.86 29.4198C164.13 28.3698 162.781 26.8998 161.801 25.0298C160.821 23.1598 160.34 20.9698 160.34 18.4798C160.34 15.9898 160.81 13.8098 161.76 11.9498C162.7 10.0898 164.03 8.6398 165.74 7.5798C167.45 6.5198 169.431 5.9998 171.671 5.9998C173.911 5.9998 175.89 6.5798 177.5 7.7498C179.11 8.9198 180.261 10.4098 180.931 12.2398L186.74 9.4598C186.13 7.7598 185.12 6.1998 183.72 4.7798C182.31 3.3598 180.591 2.2098 178.561 1.3498C176.531 0.489805 174.231 0.0498047 171.671 0.0498047C169.111 0.0498047 166.701 0.509805 164.541 1.4198C162.381 2.3298 160.49 3.6098 158.88 5.2598C157.26 6.9098 156.01 8.8598 155.11 11.1198C154.21 13.3798 153.771 15.8298 153.771 18.4898C153.771 21.1498 154.231 23.5898 155.141 25.8298C156.051 28.0698 157.33 30.0198 158.98 31.6898C160.63 33.3498 162.54 34.6498 164.72 35.5798C166.9 36.5098 169.26 36.9698 171.82 36.9698C173.93 36.9698 175.98 36.6198 177.96 35.9098C179.94 35.2098 181.731 34.1298 183.311 32.6898C184.891 31.2498 186.15 29.4698 187.08 27.3598Z" fill="#E0B853"/>
<path d="M209.11 16.5998L202.531 14.5398C201.221 14.1198 200.24 13.5398 199.6 12.7898C198.96 12.0398 198.641 11.1698 198.641 10.1698C198.641 9.3098 198.87 8.5398 199.34 7.8698C199.8 7.1998 200.451 6.6798 201.281 6.3098C202.111 5.9398 203.071 5.7598 204.161 5.7598C205.981 5.7598 207.611 6.2598 209.031 7.2498C210.451 8.2398 211.501 9.6198 212.171 11.3798L217.59 8.9798C216.95 7.1898 215.98 5.6298 214.69 4.2998C213.39 2.9698 211.851 1.9298 210.061 1.1798C208.271 0.429805 206.301 0.0498047 204.161 0.0498047C201.821 0.0498047 199.75 0.489805 197.94 1.3698C196.13 2.2498 194.72 3.4698 193.69 5.0398C192.67 6.6098 192.151 8.4198 192.151 10.4598C192.151 12.8298 192.861 14.8698 194.291 16.5798C195.711 18.2898 197.82 19.5798 200.6 20.4398L207.46 22.6498C208.71 23.0698 209.641 23.6098 210.271 24.2798C210.901 24.9498 211.21 25.8198 211.21 26.8698C211.21 27.7698 210.98 28.5298 210.51 29.1698C210.05 29.8098 209.391 30.3098 208.541 30.6798C207.691 31.0498 206.691 31.2298 205.541 31.2298C203.491 31.2298 201.651 30.6498 200.021 29.4798C198.391 28.3098 197.141 26.6998 196.281 24.6598L190.811 27.0098C191.481 28.9898 192.511 30.7298 193.911 32.2198C195.301 33.7098 196.971 34.8698 198.901 35.6998C200.841 36.5298 202.921 36.9498 205.161 36.9498C207.661 36.9498 209.83 36.4998 211.69 35.6098C213.55 34.7098 215.001 33.4798 216.061 31.9098C217.121 30.3398 217.641 28.5298 217.641 26.4898C217.641 24.0898 216.93 22.0698 215.5 20.4398C214.08 18.8098 211.94 17.5298 209.09 16.5998H209.11Z" fill="#E0B853"/>
<path d="M244.12 5.8298C243.05 4.0498 241.58 2.6498 239.73 1.6098C237.87 0.569805 235.73 0.0498047 233.3 0.0498047C230.87 0.0498047 228.76 0.569805 226.89 1.6098C225.02 2.6498 223.55 4.0698 222.47 5.8598C221.4 7.6498 220.86 9.7198 220.86 12.0498C220.86 14.1898 221.35 16.1198 222.32 17.8298C223.3 19.5398 224.63 20.8898 226.33 21.8898C228.03 22.8798 229.96 23.3798 232.14 23.3798C232.65 23.3798 233.13 23.3398 233.58 23.2598L223.36 36.3898H231.18L241.16 23.4298C242.38 21.7998 243.31 20.3298 243.97 19.0398C244.63 17.7398 245.08 16.5198 245.34 15.3698C245.6 14.2198 245.72 13.0698 245.72 11.9098C245.72 9.6398 245.18 7.6098 244.11 5.8398L244.12 5.8298ZM238.36 15.0698C237.83 15.9698 237.14 16.6598 236.27 17.1598C235.4 17.6598 234.41 17.8998 233.29 17.8998C232.17 17.8998 231.21 17.6498 230.31 17.1598C229.41 16.6598 228.7 15.9698 228.17 15.0698C227.64 14.1698 227.38 13.1298 227.38 11.9498C227.38 10.7698 227.64 9.7198 228.17 8.8098C228.7 7.8998 229.41 7.1898 230.31 6.6998C231.21 6.1998 232.2 5.9598 233.29 5.9598C234.38 5.9598 235.36 6.2098 236.24 6.6998C237.12 7.1998 237.82 7.8998 238.35 8.8098C238.88 9.7198 239.14 10.7698 239.14 11.9498C239.14 13.1298 238.88 14.1698 238.35 15.0698H238.36Z" fill="#E0B853"/>
<path d="M97.3 49.2097H106.15V46.6797H94.46V64.6397H97.3V57.1397H105.18V54.6097H97.3V49.2097Z" fill="#E0B853"/>
<path d="M111.81 46.6797L105.5 64.6397H108.54L109.94 60.6097H117.24L118.59 64.6397H121.65L115.34 46.6797H111.82H111.81ZM110.75 58.0797L113.58 49.8497L116.37 58.0797H110.75Z" fill="#E0B853"/>
<path d="M131.38 54.8997L128.22 53.9096C127.48 53.6796 126.93 53.3497 126.56 52.8997C126.19 52.4497 126.01 51.9296 126.01 51.3596C126.01 50.8596 126.13 50.4297 126.38 50.0597C126.63 49.6897 126.98 49.4096 127.43 49.1996C127.88 48.9896 128.4 48.8997 129 48.8997C129.98 48.8997 130.84 49.1496 131.58 49.6596C132.32 50.1696 132.87 50.8896 133.24 51.8396L135.6 50.8297C135.31 49.9597 134.85 49.1996 134.21 48.5296C133.57 47.8596 132.82 47.3396 131.93 46.9596C131.05 46.5796 130.07 46.3896 128.99 46.3896C127.85 46.3896 126.84 46.6096 125.96 47.0396C125.08 47.4696 124.4 48.0796 123.91 48.8496C123.42 49.6196 123.18 50.5096 123.18 51.4996C123.18 52.6596 123.53 53.6696 124.23 54.5396C124.93 55.4096 125.95 56.0497 127.3 56.4697L130.7 57.5296C131.41 57.7396 131.95 58.0396 132.32 58.4296C132.69 58.8196 132.87 59.3396 132.87 59.9796C132.87 60.4596 132.74 60.8896 132.47 61.2596C132.21 61.6296 131.84 61.9196 131.36 62.1196C130.88 62.3196 130.33 62.4196 129.69 62.4196C128.6 62.4196 127.63 62.1196 126.8 61.5296C125.96 60.9396 125.33 60.0796 124.9 58.9796L122.49 59.9897C122.79 60.9497 123.29 61.8097 123.97 62.5597C124.65 63.3097 125.47 63.8896 126.43 64.3096C127.39 64.7296 128.43 64.9397 129.58 64.9397C130.78 64.9397 131.85 64.7196 132.76 64.2796C133.68 63.8396 134.39 63.2296 134.92 62.4596C135.45 61.6896 135.7 60.8097 135.7 59.8097C135.7 58.5997 135.34 57.5996 134.61 56.7796C133.89 55.9696 132.81 55.3496 131.38 54.9096V54.8997Z" fill="#E0B853"/>
<path d="M149.77 54.5797H141.48V46.6797H138.64V64.6397H141.48V57.1397H149.77V64.6397H152.62V46.6797H149.77V54.5797Z" fill="#E0B853"/>
<path d="M158.93 46.6797H156.09V64.6397H158.93V46.6797Z" fill="#E0B853"/>
<path d="M177.72 49.0296C176.88 48.1996 175.9 47.5596 174.78 47.0896C173.66 46.6196 172.45 46.3896 171.13 46.3896C169.81 46.3896 168.59 46.6197 167.48 47.0797C166.36 47.5397 165.38 48.1896 164.54 49.0196C163.7 49.8596 163.04 50.8396 162.58 51.9596C162.11 53.0896 161.88 54.3097 161.88 55.6497C161.88 56.9897 162.12 58.2096 162.59 59.3396C163.06 60.4696 163.72 61.4396 164.55 62.2796C165.39 63.1196 166.37 63.7697 167.49 64.2297C168.61 64.6997 169.83 64.9296 171.13 64.9296C172.43 64.9296 173.64 64.6997 174.77 64.2297C175.89 63.7597 176.87 63.1096 177.71 62.2796C178.55 61.4396 179.2 60.4596 179.67 59.3396C180.14 58.2196 180.38 56.9897 180.38 55.6497C180.38 54.3097 180.15 53.0896 179.68 51.9596C179.21 50.8396 178.56 49.8596 177.72 49.0296ZM177.07 58.2796C176.76 59.0896 176.31 59.7997 175.73 60.3997C175.15 60.9997 174.47 61.4697 173.69 61.8097C172.91 62.1497 172.05 62.3196 171.12 62.3196C170.19 62.3196 169.35 62.1497 168.57 61.8097C167.78 61.4697 167.1 60.9997 166.52 60.3997C165.94 59.7997 165.5 59.0896 165.18 58.2796C164.87 57.4696 164.71 56.5896 164.71 55.6396C164.71 54.6896 164.87 53.8396 165.18 53.0296C165.49 52.2196 165.94 51.5097 166.52 50.8997C167.1 50.2897 167.78 49.8197 168.56 49.4897C169.34 49.1597 170.19 48.9996 171.13 48.9996C172.07 48.9996 172.92 49.1597 173.7 49.4897C174.48 49.8197 175.16 50.2897 175.74 50.8997C176.32 51.5097 176.76 52.2196 177.08 53.0296C177.39 53.8396 177.55 54.7096 177.55 55.6396C177.55 56.5696 177.39 57.4696 177.08 58.2796H177.07Z" fill="#E0B853"/>
<path d="M194.58 59.0597L185.61 46.6797H183.33V64.6397H186.17V52.0797L195.14 64.6397H197.43V46.6797H194.58V59.0597Z" fill="#E0B853"/>
<path d="M209 54.8997L205.84 53.9096C205.1 53.6796 204.55 53.3497 204.18 52.8997C203.81 52.4497 203.63 51.9296 203.63 51.3596C203.63 50.8596 203.75 50.4297 204 50.0597C204.25 49.6897 204.6 49.4096 205.05 49.1996C205.5 48.9996 206.02 48.8997 206.62 48.8997C207.6 48.8997 208.46 49.1496 209.2 49.6596C209.94 50.1696 210.49 50.8896 210.86 51.8396L213.22 50.8297C212.93 49.9597 212.47 49.1996 211.83 48.5296C211.19 47.8596 210.44 47.3396 209.55 46.9596C208.67 46.5796 207.69 46.3896 206.61 46.3896C205.47 46.3896 204.46 46.6096 203.58 47.0396C202.7 47.4696 202.02 48.0796 201.53 48.8496C201.04 49.6196 200.79 50.5096 200.79 51.4996C200.79 52.6596 201.14 53.6696 201.84 54.5396C202.54 55.4096 203.56 56.0497 204.91 56.4697L208.31 57.5296C209.02 57.7396 209.56 58.0396 209.93 58.4296C210.3 58.8196 210.48 59.3396 210.48 59.9796C210.48 60.4596 210.35 60.8896 210.08 61.2596C209.81 61.6296 209.44 61.9196 208.97 62.1196C208.5 62.3196 207.94 62.4196 207.29 62.4196C206.2 62.4196 205.23 62.1196 204.4 61.5296C203.56 60.9396 202.93 60.0796 202.5 58.9796L200.09 59.9897C200.4 60.9497 200.89 61.8097 201.57 62.5597C202.25 63.3097 203.07 63.8896 204.03 64.3096C204.99 64.7296 206.04 64.9397 207.18 64.9397C208.38 64.9397 209.45 64.7196 210.36 64.2796C211.27 63.8396 212 63.2296 212.52 62.4596C213.04 61.6896 213.3 60.8097 213.3 59.8097C213.3 58.5997 212.94 57.5996 212.21 56.7796C211.48 55.9596 210.41 55.3496 208.98 54.9096L209 54.8997Z" fill="#E0B853"/>
<path d="M33.4005 64.89L29.2805 58.04L25.0305 50.97L20.7905 58.81L17.4905 64.9H9.07043L12.1405 59.49L16.7705 51.32L19.3605 46.76L20.8705 44.09L21.1605 43.58L23.9005 38.74H23.8304C22.6404 38.99 21.4204 39.1 20.1904 39.1C9.60043 39.1 0.980469 30.33 0.980469 19.55C0.980469 8.77 9.62045 0 20.2104 0C28.4004 0 35.6905 5.29 38.3605 13.16C39.0605 15.21 39.4105 17.37 39.4105 19.55C39.4105 22.27 38.8705 24.9 37.8105 27.36L36.1205 30.48V30.5L29.0505 43.54L28.9404 43.74L30.9305 47.26L40.8805 64.89H33.4005ZM19.9205 7.15C13.2105 7.15 7.74048 12.71 7.74048 19.54C7.74048 26.37 13.2005 31.93 19.9205 31.93C26.6405 31.93 32.1005 26.37 32.1005 19.54C32.1005 12.71 26.6405 7.15 19.9205 7.15Z" fill="#E0B853"/>
<path d="M14.5002 47.1498L9.9303 55.4398L3.49023 43.5498H12.5503L14.4902 47.1398L14.5002 47.1498Z" fill="#E0B853"/>
<path d="M46.1605 43.5498L39.7104 55.4498L35.1904 47.0998L37.1205 43.5498H46.1705H46.1605Z" fill="#E0B853"/>
<path d="M28.7405 64.9198H21.9404L23.0005 62.8398L25.3105 58.2998L27.1705 61.8898L28.7405 64.9198Z" fill="#E0B853"/>
</svg>
