<svg xmlns="http://www.w3.org/2000/svg" viewBox="0 0 160 160" role="img" aria-labelledby="title desc">
  <title id="title">WINGS NINE GLOBAL TRADING FZCO</title>
  <desc id="desc">Abstract globe and arrow mark for WINGS NINE GLOBAL TRADING FZCO.</desc>
  <defs>
    <linearGradient id="bg" x1="0%" y1="0%" x2="100%" y2="100%">
      <stop offset="0%" stop-color="#0f2d3a"/>
      <stop offset="100%" stop-color="#164e63"/>
    </linearGradient>
    <linearGradient id="gold" x1="0%" y1="0%" x2="100%" y2="100%">
      <stop offset="0%" stop-color="#f4d37a"/>
      <stop offset="100%" stop-color="#d8a641"/>
    </linearGradient>
  </defs>
  <rect width="160" height="160" rx="32" fill="url(#bg)"/>
  <circle cx="80" cy="80" r="42" fill="none" stroke="url(#gold)" stroke-width="8"/>
  <path d="M38 86c14-8 28-12 42-12 18 0 33 6 45 18" fill="none" stroke="url(#gold)" stroke-width="8" stroke-linecap="round"/>
  <path d="M69 42c-8 11-12 24-12 38 0 17 6 33 17 46" fill="none" stroke="url(#gold)" stroke-width="8" stroke-linecap="round"/>
  <path d="M98 39c15 11 24 28 24 47" fill="none" stroke="url(#gold)" stroke-width="8" stroke-linecap="round"/>
  <path d="M105 57l21 0 0 21" fill="none" stroke="#ffffff" stroke-width="7" stroke-linecap="round" stroke-linejoin="round"/>
  <path d="M125 57 92 90" fill="none" stroke="#ffffff" stroke-width="7" stroke-linecap="round"/>
</svg>
