<svg width="246" height="65" viewBox="0 0 246 65" fill="none" xmlns="http://www.w3.org/2000/svg">
<path d="M33.4005 64.89L29.2805 58.04L25.0305 50.97L20.7905 58.81L17.4904 64.9H9.07047L12.1405 59.49L16.7704 51.32L19.3604 46.76L20.8705 44.09L21.1605 43.58L23.9005 38.74H23.8304C22.6404 38.99 21.4205 39.1 20.1905 39.1C9.60046 39.1 0.980469 30.33 0.980469 19.55C0.980469 8.77 9.62045 0 20.2104 0C28.4004 0 35.6904 5.29 38.3604 13.16C39.0604 15.21 39.4105 17.37 39.4105 19.55C39.4105 22.27 38.8705 24.9 37.8105 27.36L36.1205 30.48V30.5L29.0504 43.54L28.9405 43.74L30.9305 47.26L40.8805 64.89H33.4005ZM19.9205 7.15C13.2105 7.15 7.74045 12.71 7.74045 19.54C7.74045 26.37 13.2005 31.93 19.9205 31.93C26.6405 31.93 32.1005 26.37 32.1005 19.54C32.1005 12.71 26.6405 7.15 19.9205 7.15Z" fill="#E0B853"/>
<path d="M14.5002 47.1498L9.93024 55.4398L3.49023 43.5498H12.5502L14.4902 47.1398L14.5002 47.1498Z" fill="#E0B853"/>
<path d="M46.1604 43.5498L39.7104 55.4498L35.1904 47.0998L37.1204 43.5498H46.1704H46.1604Z" fill="#E0B853"/>
<path d="M28.7404 64.9198H21.9404L23.0004 62.8398L25.3104 58.2998L27.1704 61.8898L28.7404 64.9198Z" fill="#E0B853"/>
<path d="M98.5401 0.599609L91.9001 27.4696L85.0001 0.599609H78.1801L71.2801 27.4696L64.6301 0.599609H57.6201L67.2301 36.3796H74.7201L81.5901 10.6996L88.4601 36.3796H95.9501L105.55 0.599609H98.5401Z" fill="#E0B853"/>
<path d="M114.87 0.599609H108.29V36.3796H114.87V0.599609Z" fill="#E0B853"/>
<path d="M127.07 12.9896L144.03 36.3796H149.21V0.599609H142.68V23.6096L125.63 0.599609H120.49V36.3796H127.07V12.9896Z" fill="#E0B853"/>
<path d="M159.03 31.6698C160.68 33.3398 162.59 34.6298 164.77 35.5598C166.95 36.4898 169.32 36.9498 171.88 36.9498C173.99 36.9498 176.04 36.5998 178.03 35.8898C180.02 35.1898 181.8 34.1098 183.39 32.6698C184.97 31.2298 186.23 29.4498 187.16 27.3398C188.09 25.2298 188.55 22.7898 188.55 20.0398V16.4398H171.74V21.9598H182.02V22.0998C182.02 23.9298 181.55 25.4998 180.6 26.8298C179.66 28.1598 178.42 29.1798 176.88 29.8998C175.34 30.6198 173.68 30.9798 171.88 30.9798C169.64 30.9798 167.65 30.4498 165.92 29.3998C164.19 28.3498 162.84 26.8798 161.86 25.0098C160.88 23.1398 160.4 20.9498 160.4 18.4498C160.4 15.9498 160.87 13.7798 161.82 11.9198C162.76 10.0598 164.09 8.60977 165.81 7.54977C167.52 6.48977 169.5 5.96977 171.74 5.96977C173.98 5.96977 175.96 6.54977 177.58 7.71977C179.2 8.88977 180.34 10.3898 181.01 12.2098L186.82 9.41977C186.21 7.71977 185.2 6.15977 183.79 4.73977C182.38 3.31977 180.66 2.16977 178.63 1.30977C176.6 0.449766 174.3 0.00976562 171.74 0.00976562C169.18 0.00976562 166.77 0.469766 164.61 1.37977C162.45 2.28977 160.56 3.56977 158.94 5.21977C157.32 6.86977 156.07 8.81977 155.17 11.0798C154.27 13.3398 153.83 15.7998 153.83 18.4498C153.83 21.0998 154.29 23.5598 155.2 25.7998C156.11 28.0398 157.39 29.9898 159.04 31.6598L159.03 31.6698Z" fill="#E0B853"/>
<path d="M205.26 36.9498C207.76 36.9498 209.93 36.4998 211.79 35.6098C213.65 34.7098 215.1 33.4798 216.16 31.9098C217.22 30.3398 217.74 28.5298 217.74 26.4798C217.74 24.0798 217.03 22.0598 215.6 20.4298C214.17 18.7998 212.04 17.5198 209.19 16.5898L202.61 14.5298C201.3 14.1098 200.32 13.5298 199.68 12.7798C199.04 12.0298 198.72 11.1498 198.72 10.1598C198.72 9.29979 198.95 8.52978 199.42 7.84978C199.88 7.17978 200.53 6.65978 201.36 6.28978C202.19 5.91978 203.15 5.73978 204.24 5.73978C206.07 5.73978 207.69 6.23978 209.12 7.22978C210.55 8.21978 211.59 9.59979 212.27 11.3598L217.7 8.95979C217.06 7.16979 216.09 5.60979 214.79 4.27979C213.49 2.94979 211.95 1.90979 210.16 1.15979C208.37 0.409785 206.4 0.0297852 204.25 0.0297852C201.91 0.0297852 199.84 0.469785 198.03 1.34979C196.22 2.22979 194.8 3.45978 193.78 5.01978C192.75 6.58978 192.24 8.39979 192.24 10.4498C192.24 12.8198 192.95 14.8598 194.38 16.5698C195.8 18.2798 197.91 19.5698 200.7 20.4398L207.57 22.6498C208.82 23.0698 209.75 23.6098 210.38 24.2798C211.01 24.9498 211.32 25.8198 211.32 26.8698C211.32 27.7698 211.09 28.5398 210.62 29.1798C210.16 29.8198 209.5 30.3298 208.65 30.6898C207.8 31.0598 206.8 31.2398 205.65 31.2398C203.6 31.2398 201.76 30.6598 200.13 29.4898C198.5 28.3198 197.25 26.7098 196.38 24.6598L190.9 27.0098C191.57 28.9998 192.61 30.7298 194 32.2198C195.39 33.7098 197.06 34.8698 199 35.6998C200.94 36.5298 203.03 36.9498 205.27 36.9498H205.26Z" fill="#E0B853"/>
<path d="M244.24 5.80953C243.17 4.02953 241.7 2.61953 239.85 1.57953C237.99 0.539531 235.85 0.0195312 233.41 0.0195312C230.97 0.0195312 228.87 0.539531 227 1.57953C225.13 2.61953 223.65 4.03953 222.58 5.82953C221.51 7.61953 220.97 9.68953 220.97 12.0295C220.97 14.1795 221.46 16.0995 222.43 17.8195C223.41 19.5295 224.74 20.8895 226.44 21.8795C228.14 22.8695 230.07 23.3695 232.25 23.3695C232.76 23.3695 233.24 23.3295 233.69 23.2495L223.46 36.3895H231.29L241.28 23.4195C242.5 21.7895 243.43 20.3195 244.09 19.0295C244.75 17.7295 245.2 16.5095 245.46 15.3495C245.72 14.1995 245.84 13.0395 245.84 11.8895C245.84 9.61953 245.3 7.58953 244.23 5.81953L244.24 5.80953ZM238.47 15.0495C237.94 15.9495 237.25 16.6395 236.38 17.1395C235.51 17.6395 234.52 17.8795 233.4 17.8795C232.28 17.8795 231.32 17.6295 230.42 17.1395C229.52 16.6395 228.81 15.9495 228.28 15.0495C227.75 14.1495 227.49 13.1095 227.49 11.9295C227.49 10.7495 227.75 9.69953 228.28 8.77953C228.81 7.86953 229.52 7.15953 230.42 6.66953C231.32 6.16953 232.31 5.92953 233.4 5.92953C234.49 5.92953 235.47 6.17953 236.35 6.66953C237.23 7.16953 237.93 7.86953 238.46 8.77953C238.99 9.68953 239.25 10.7395 239.25 11.9295C239.25 13.1195 238.99 14.1595 238.46 15.0495H238.47Z" fill="#E0B853"/>
<path d="M91.7505 47.39C90.8305 46.95 89.7706 46.73 88.5706 46.73H82.0605V64.62H84.8906V57.9H88.5605C89.7605 57.9 90.8206 57.68 91.7306 57.23C92.6406 56.78 93.3606 56.14 93.8806 55.31C94.4006 54.48 94.6606 53.48 94.6606 52.33C94.6606 51.18 94.4006 50.16 93.8906 49.32C93.3806 48.48 92.6605 47.84 91.7405 47.4L91.7505 47.39ZM91.4305 53.92C91.1705 54.38 90.7905 54.73 90.3105 54.99C89.8305 55.25 89.2706 55.37 88.6306 55.37H84.8806V49.25H88.6306C89.2706 49.25 89.8305 49.38 90.3105 49.64C90.7905 49.9 91.1605 50.25 91.4305 50.71C91.6905 51.17 91.8305 51.71 91.8305 52.33C91.8305 52.95 91.7005 53.47 91.4305 53.93V53.92Z" fill="#E0B853"/>
<path d="M109.01 55.5C109.63 54.63 109.94 53.57 109.94 52.32C109.94 51.15 109.68 50.15 109.16 49.31C108.64 48.47 107.92 47.83 107.01 47.39C106.1 46.95 105.04 46.73 103.84 46.73H97.3301V64.62H100.16V57.9H103.65L107.44 64.62H110.66L106.53 57.42C107.57 57.02 108.4 56.38 109.01 55.51V55.5ZM105.57 54.99C105.09 55.25 104.53 55.37 103.89 55.37H100.17V49.25H103.89C104.53 49.25 105.09 49.38 105.57 49.64C106.05 49.9 106.43 50.25 106.7 50.71C106.97 51.17 107.11 51.71 107.11 52.33C107.11 52.95 106.97 53.47 106.7 53.93C106.43 54.39 106.05 54.74 105.57 55V54.99Z" fill="#E0B853"/>
<path d="M128.06 49.0699C127.22 48.2499 126.24 47.5999 125.13 47.1399C124.02 46.6799 122.8 46.4399 121.49 46.4399C120.18 46.4399 118.96 46.6699 117.85 47.1199C116.74 47.5699 115.76 48.2199 114.92 49.0499C114.08 49.8799 113.43 50.8599 112.96 51.9799C112.49 53.0999 112.26 54.3299 112.26 55.6499C112.26 56.9699 112.5 58.1999 112.97 59.3199C113.44 60.4399 114.09 61.4199 114.93 62.2499C115.77 63.0799 116.74 63.7299 117.86 64.1899C118.98 64.6499 120.19 64.8899 121.49 64.8899C122.79 64.8899 124 64.6599 125.12 64.1899C126.24 63.7299 127.22 63.0799 128.05 62.2499C128.88 61.4199 129.53 60.4399 130.01 59.3199C130.48 58.1999 130.72 56.9699 130.72 55.6499C130.72 54.3299 130.49 53.0999 130.02 51.9799C129.55 50.8599 128.9 49.8899 128.06 49.0599V49.0699ZM127.41 58.2899C127.1 59.0999 126.65 59.7999 126.08 60.3999C125.5 60.9999 124.83 61.4699 124.05 61.8099C123.27 62.1499 122.42 62.3099 121.49 62.3099C120.56 62.3099 119.73 62.1399 118.94 61.8099C118.16 61.4699 117.47 60.9999 116.9 60.3999C116.32 59.7999 115.88 59.0999 115.57 58.2899C115.26 57.4799 115.1 56.6099 115.1 55.6599C115.1 54.7099 115.26 53.8599 115.57 53.0499C115.88 52.2399 116.33 51.5299 116.9 50.9199C117.48 50.3099 118.15 49.8399 118.93 49.5099C119.71 49.1799 120.56 49.0199 121.49 49.0199C122.42 49.0199 123.27 49.1799 124.05 49.5099C124.83 49.8399 125.5 50.3099 126.08 50.9199C126.66 51.5299 127.1 52.2399 127.41 53.0499C127.72 53.8599 127.88 54.7299 127.88 55.6599C127.88 56.5899 127.72 57.4799 127.41 58.2899Z" fill="#E0B853"/>
<path d="M143.331 47.39C142.411 46.95 141.351 46.73 140.151 46.73H133.641V64.62H136.471V57.9H140.141C141.341 57.9 142.401 57.68 143.311 57.23C144.221 56.78 144.941 56.14 145.461 55.31C145.981 54.48 146.241 53.48 146.241 52.33C146.241 51.18 145.981 50.16 145.471 49.32C144.961 48.48 144.241 47.84 143.321 47.4L143.331 47.39ZM143.021 53.92C142.761 54.38 142.381 54.73 141.901 54.99C141.421 55.25 140.861 55.37 140.221 55.37H136.471V49.25H140.221C140.861 49.25 141.421 49.38 141.901 49.64C142.381 49.9 142.751 50.25 143.021 50.71C143.291 51.17 143.421 51.71 143.421 52.33C143.421 52.95 143.291 53.47 143.021 53.93V53.92Z" fill="#E0B853"/>
<path d="M148.91 64.62H160.68V62.1H151.75V56.91H160.2V54.39H151.75V49.25H160.68V46.73H148.91V64.62Z" fill="#E0B853"/>
<path d="M174.76 55.5C175.38 54.63 175.69 53.57 175.69 52.32C175.69 51.15 175.43 50.15 174.91 49.31C174.39 48.47 173.67 47.83 172.76 47.39C171.85 46.95 170.79 46.73 169.59 46.73H163.08V64.62H165.91V57.9H169.4L173.19 64.62H176.41L172.28 57.42C173.32 57.02 174.15 56.38 174.76 55.51V55.5ZM171.32 54.99C170.84 55.25 170.28 55.37 169.64 55.37H165.92V49.25H169.64C170.28 49.25 170.84 49.38 171.32 49.64C171.8 49.9 172.18 50.25 172.45 50.71C172.72 51.17 172.86 51.71 172.86 52.33C172.86 52.95 172.72 53.47 172.45 53.93C172.18 54.39 171.8 54.74 171.32 55V54.99Z" fill="#E0B853"/>
<path d="M176.48 49.25H181.21V64.62H184.05V49.25H188.73V46.73H176.48V49.25Z" fill="#E0B853"/>
<path d="M193.431 46.73H190.601V64.62H193.431V46.73Z" fill="#E0B853"/>
<path d="M196.891 64.62H208.661V62.1H199.731V56.91H208.181V54.39H199.731V49.25H208.661V46.73H196.891V64.62Z" fill="#E0B853"/>
<path d="M219.13 54.9099L215.98 53.9299C215.24 53.7099 214.69 53.3699 214.32 52.9199C213.95 52.4699 213.77 51.9599 213.77 51.3799C213.77 50.8799 213.89 50.4499 214.14 50.0799C214.39 49.7099 214.74 49.4299 215.18 49.2299C215.62 49.0299 216.15 48.9299 216.74 48.9299C217.72 48.9299 218.57 49.1799 219.31 49.6899C220.05 50.1999 220.6 50.9199 220.97 51.8599L223.32 50.8499C223.03 49.9899 222.57 49.2199 221.94 48.5599C221.31 47.8999 220.55 47.3799 219.67 46.9999C218.79 46.6199 217.81 46.4399 216.74 46.4399C215.6 46.4399 214.6 46.6599 213.73 47.0899C212.86 47.5199 212.18 48.1199 211.69 48.8899C211.2 49.6599 210.96 50.5399 210.96 51.5299C210.96 52.6799 211.31 53.6899 212 54.5599C212.7 55.4199 213.72 56.0599 215.06 56.4799L218.45 57.5399C219.15 57.7499 219.69 58.0499 220.06 58.4399C220.43 58.8299 220.61 59.3499 220.61 59.9899C220.61 60.4699 220.48 60.8899 220.21 61.2599C219.95 61.6299 219.58 61.9099 219.1 62.1099C218.62 62.3099 218.07 62.4099 217.43 62.4099C216.34 62.4099 215.38 62.1099 214.55 61.5199C213.72 60.9299 213.09 60.0799 212.65 58.9699L210.25 59.9799C210.55 60.9399 211.05 61.7899 211.73 62.5399C212.41 63.2799 213.23 63.8699 214.18 64.2799C215.13 64.6899 216.18 64.8999 217.31 64.8999C218.51 64.8999 219.57 64.6799 220.48 64.2399C221.39 63.7999 222.11 63.1999 222.63 62.4299C223.15 61.6599 223.41 60.7799 223.41 59.7899C223.41 58.5899 223.05 57.5799 222.33 56.7799C221.61 55.9799 220.54 55.3499 219.11 54.9199L219.13 54.9099Z" fill="#E0B853"/>
</svg>
