<svg width="246" height="65" viewBox="0 0 246 65" fill="none" xmlns="http://www.w3.org/2000/svg">
<path d="M81.7909 10.7499L88.6409 36.3399H96.1009L105.671 0.689941H98.6809L92.0609 27.4699L85.1909 0.689941H78.3909L71.5209 27.4699L64.9009 0.689941H57.9209L67.4909 36.3399H74.9509L81.7909 10.7499Z" fill="#E0B853"/>
<path d="M114.951 0.689941H108.401V36.3399H114.951V0.689941Z" fill="#E0B853"/>
<path d="M127.111 13.0299L144.001 36.3399H149.161V0.689941H142.661V23.6199L125.671 0.689941H120.551V36.3399H127.111V13.0299Z" fill="#E0B853"/>
<path d="M188.351 16.4801H171.601V21.9801H181.841V22.1201C181.841 23.9401 181.371 25.5101 180.431 26.8301C179.491 28.1501 178.251 29.1801 176.721 29.8901C175.191 30.6001 173.531 30.9701 171.741 30.9701C169.511 30.9701 167.531 30.4401 165.811 29.3901C164.091 28.3401 162.741 26.8801 161.771 25.0101C160.801 23.1401 160.311 20.9701 160.311 18.4801C160.311 15.9901 160.781 13.8201 161.721 11.9701C162.661 10.1201 163.981 8.6701 165.691 7.6201C167.401 6.5701 169.371 6.0401 171.601 6.0401C173.831 6.0401 175.801 6.6201 177.411 7.7901C179.021 8.9501 180.161 10.4501 180.831 12.2601L186.621 9.4801C186.011 7.7901 185.011 6.2301 183.611 4.8101C182.211 3.3901 180.491 2.2501 178.471 1.3901C176.441 0.530098 174.161 0.100098 171.601 0.100098C169.041 0.100098 166.651 0.550098 164.501 1.4601C162.351 2.3701 160.461 3.6501 158.851 5.2901C157.241 6.9301 155.991 8.8801 155.091 11.1301C154.201 13.3801 153.751 15.8301 153.751 18.4701C153.751 21.1101 154.201 23.5601 155.111 25.7901C156.021 28.0201 157.291 29.9701 158.941 31.6301C160.581 33.2901 162.491 34.5801 164.661 35.5101C166.831 36.4301 169.191 36.9001 171.741 36.9001C173.851 36.9001 175.891 36.5501 177.871 35.8501C179.851 35.1501 181.631 34.0801 183.201 32.6401C184.781 31.2101 186.031 29.4301 186.961 27.3301C187.881 25.2301 188.351 22.8001 188.351 20.0601V16.4701V16.4801Z" fill="#E0B853"/>
<path d="M215.86 31.8901C216.91 30.3301 217.44 28.5201 217.44 26.4801C217.44 24.0901 216.731 22.0801 215.311 20.4501C213.891 18.8201 211.761 17.5501 208.921 16.6201L202.37 14.5601C201.06 14.1501 200.09 13.5601 199.45 12.8101C198.81 12.0601 198.49 11.1901 198.49 10.2001C198.49 9.3401 198.721 8.5701 199.181 7.9001C199.641 7.2301 200.29 6.7101 201.12 6.3401C201.95 5.9701 202.91 5.7901 203.99 5.7901C205.81 5.7901 207.43 6.2801 208.85 7.2701C210.27 8.2601 211.31 9.6301 211.98 11.3801L217.391 8.9901C216.751 7.2001 215.79 5.6501 214.5 4.3301C213.21 3.0101 211.67 1.9701 209.88 1.2201C208.09 0.470098 206.13 0.100098 203.99 0.100098C201.66 0.100098 199.601 0.540098 197.791 1.4201C195.991 2.3001 194.581 3.5201 193.561 5.0801C192.541 6.6401 192.031 8.4501 192.031 10.4901C192.031 12.8501 192.741 14.8801 194.161 16.5901C195.581 18.3001 197.68 19.5801 200.45 20.4401L207.291 22.6401C208.531 23.0501 209.47 23.6001 210.09 24.2701C210.71 24.9401 211.021 25.8001 211.021 26.8501C211.021 27.7401 210.79 28.5101 210.33 29.1501C209.87 29.7901 209.21 30.2901 208.37 30.6601C207.53 31.0301 206.53 31.2101 205.38 31.2101C203.34 31.2101 201.5 30.6301 199.88 29.4601C198.25 28.3001 197.011 26.6901 196.151 24.6501L190.69 26.9901C191.36 28.9701 192.391 30.7001 193.781 32.1801C195.171 33.6601 196.83 34.8201 198.76 35.6501C200.69 36.4801 202.77 36.8901 205 36.8901C207.49 36.8901 209.66 36.4401 211.51 35.5501C213.36 34.6601 214.81 33.4301 215.86 31.8701V31.8901Z" fill="#E0B853"/>
<path d="M243.831 5.88012C242.761 4.11012 241.301 2.71012 239.451 1.67012C237.601 0.630117 235.461 0.120117 233.041 0.120117C230.621 0.120117 228.521 0.640117 226.651 1.67012C224.781 2.71012 223.321 4.12012 222.251 5.90012C221.181 7.69012 220.651 9.74012 220.651 12.0701C220.651 14.2101 221.131 16.1301 222.111 17.8401C223.091 19.5501 224.421 20.8901 226.111 21.8801C227.801 22.8701 229.731 23.3601 231.901 23.3601C232.411 23.3601 232.881 23.3201 233.331 23.2401L223.141 36.3301H230.941L240.891 23.4101C242.101 21.7801 243.041 20.3201 243.691 19.0301C244.341 17.7401 244.801 16.5201 245.051 15.3701C245.311 14.2201 245.431 13.0701 245.431 11.9201C245.431 9.66012 244.901 7.64012 243.831 5.87012V5.88012ZM238.091 15.0901C237.561 15.9801 236.871 16.6801 236.011 17.1701C235.151 17.6601 234.161 17.9101 233.041 17.9101C231.921 17.9101 230.971 17.6601 230.071 17.1701C229.171 16.6801 228.471 15.9801 227.941 15.0901C227.411 14.2001 227.151 13.1601 227.151 11.9801C227.151 10.8001 227.411 9.75012 227.941 8.85012C228.471 7.95012 229.181 7.24012 230.071 6.74012C230.961 6.25012 231.951 6.00012 233.041 6.00012C234.131 6.00012 235.101 6.25012 235.981 6.74012C236.861 7.24012 237.561 7.94012 238.091 8.85012C238.621 9.76012 238.881 10.8001 238.881 11.9801C238.881 13.1601 238.621 14.2001 238.091 15.0901Z" fill="#E0B853"/>
<path d="M57.6201 49.1599H62.3601V64.5799H65.2101V49.1599H69.9001V46.6299H57.6201V49.1599Z" fill="#E0B853"/>
<path d="M71.7803 64.5799H83.5803V62.0499H74.6202V56.8399H83.1002V54.3199H74.6202V49.1599H83.5803V46.6299H71.7803V64.5799Z" fill="#E0B853"/>
<path d="M91.1905 49.7898C92.1105 49.2298 93.1605 48.9498 94.3505 48.9498C95.5405 48.9498 96.5505 49.2498 97.4005 49.8498C98.2405 50.4498 98.8505 51.2298 99.2205 52.1698L101.8 50.9898C101.5 50.1698 101 49.4098 100.31 48.6998C99.6205 47.9898 98.7705 47.4198 97.7605 46.9898C96.7505 46.5598 95.6205 46.3398 94.3605 46.3398C93.1005 46.3398 91.8905 46.5698 90.8105 47.0298C89.7305 47.4898 88.7905 48.1298 87.9905 48.9598C87.1905 49.7898 86.5805 50.7698 86.1405 51.8998C85.7005 53.0298 85.4805 54.2598 85.4805 55.5998C85.4805 56.9398 85.7005 58.1798 86.1405 59.3098C86.5805 60.4298 87.2005 61.4098 88.0105 62.2398C88.8105 63.0698 89.7505 63.7098 90.8305 64.1798C91.9105 64.6498 93.0905 64.8798 94.3705 64.8798C95.6505 64.8798 96.7505 64.6598 97.7705 64.2298C98.7805 63.7998 99.6305 63.2298 100.32 62.5198C101.01 61.8098 101.51 61.0598 101.81 60.2598L99.2305 59.0598C98.8605 60.0198 98.2505 60.7998 97.4105 61.3998C96.5705 61.9898 95.5505 62.2898 94.3605 62.2898C93.1705 62.2898 92.1205 62.0098 91.2005 61.4598C90.2905 60.9098 89.5705 60.1298 89.0705 59.1198C88.5605 58.1198 88.3105 56.9498 88.3105 55.6198C88.3105 54.2898 88.5605 53.1498 89.0705 52.1498C89.5805 51.1598 90.2905 50.3798 91.2005 49.8098L91.1905 49.7898Z" fill="#E0B853"/>
<path d="M115.56 54.5299H107.28V46.6299H104.44V64.5799H107.28V57.0899H115.56V64.5799H118.41V46.6299H115.56V54.5299Z" fill="#E0B853"/>
<path d="M133.12 58.9999L124.16 46.6299H121.87V64.5799H124.71V52.0299L133.67 64.5799H135.96V46.6299H133.12V58.9999Z" fill="#E0B853"/>
<path d="M154.731 48.9798C153.891 48.1498 152.911 47.5098 151.791 47.0398C150.671 46.5698 149.461 46.3398 148.141 46.3398C146.821 46.3398 145.611 46.5698 144.491 47.0298C143.371 47.4898 142.391 48.1298 141.551 48.9698C140.711 49.8098 140.051 50.7898 139.591 51.9098C139.121 53.0298 138.891 54.2598 138.891 55.5898C138.891 56.9198 139.131 58.1498 139.601 59.2698C140.071 60.3898 140.731 61.3698 141.561 62.2098C142.391 63.0398 143.371 63.6998 144.501 64.1598C145.621 64.6298 146.841 64.8598 148.141 64.8598C149.441 64.8598 150.651 64.6298 151.781 64.1598C152.901 63.6998 153.881 63.0398 154.721 62.2098C155.561 61.3798 156.211 60.3998 156.681 59.2698C157.151 58.1498 157.391 56.9198 157.391 55.5898C157.391 54.2598 157.161 53.0298 156.691 51.9098C156.221 50.7898 155.571 49.8098 154.731 48.9798ZM154.081 58.2298C153.771 59.0398 153.321 59.7498 152.741 60.3498C152.161 60.9498 151.481 61.4198 150.711 61.7598C149.931 62.0998 149.081 62.2698 148.151 62.2698C147.221 62.2698 146.381 62.0998 145.601 61.7598C144.821 61.4198 144.131 60.9498 143.551 60.3498C142.971 59.7498 142.531 59.0398 142.211 58.2298C141.891 57.4198 141.741 56.5398 141.741 55.5898C141.741 54.6398 141.901 53.7898 142.211 52.9798C142.521 52.1698 142.971 51.4598 143.551 50.8498C144.131 50.2398 144.811 49.7698 145.591 49.4398C146.371 49.1098 147.221 48.9498 148.151 48.9498C149.081 48.9498 149.941 49.1098 150.711 49.4398C151.491 49.7698 152.171 50.2398 152.741 50.8498C153.311 51.4598 153.761 52.1698 154.081 52.9798C154.391 53.7898 154.551 54.6598 154.551 55.5898C154.551 56.5198 154.391 57.4198 154.081 58.2298Z" fill="#E0B853"/>
<path d="M163.18 46.6299H160.33V64.5799H170.93V62.0499H163.18V46.6299Z" fill="#E0B853"/>
<path d="M187.901 48.9798C187.061 48.1498 186.08 47.5098 184.96 47.0398C183.84 46.5698 182.631 46.3398 181.311 46.3398C179.991 46.3398 178.781 46.5698 177.661 47.0298C176.541 47.4898 175.56 48.1298 174.72 48.9698C173.88 49.8098 173.22 50.7898 172.76 51.9098C172.29 53.0298 172.061 54.2598 172.061 55.5898C172.061 56.9198 172.301 58.1498 172.771 59.2698C173.241 60.3898 173.9 61.3698 174.73 62.2098C175.57 63.0398 176.541 63.6998 177.671 64.1598C178.791 64.6298 180.011 64.8598 181.311 64.8598C182.611 64.8598 183.82 64.6298 184.95 64.1598C186.07 63.6998 187.051 63.0398 187.891 62.2098C188.721 61.3698 189.38 60.3998 189.85 59.2698C190.32 58.1498 190.561 56.9198 190.561 55.5898C190.561 54.2598 190.33 53.0298 189.86 51.9098C189.39 50.7898 188.741 49.8098 187.901 48.9798ZM187.25 58.2298C186.94 59.0398 186.491 59.7498 185.911 60.3498C185.331 60.9498 184.65 61.4198 183.88 61.7598C183.11 62.0998 182.25 62.2698 181.32 62.2698C180.39 62.2698 179.551 62.0998 178.771 61.7598C177.981 61.4198 177.3 60.9498 176.72 60.3498C176.14 59.7498 175.7 59.0398 175.38 58.2298C175.06 57.4198 174.911 56.5398 174.911 55.5898C174.911 54.6398 175.07 53.7898 175.38 52.9798C175.69 52.1698 176.14 51.4598 176.72 50.8498C177.3 50.2398 177.98 49.7698 178.75 49.4398C179.53 49.1098 180.38 48.9498 181.32 48.9498C182.26 48.9498 183.11 49.1098 183.88 49.4398C184.65 49.7698 185.341 50.2398 185.911 50.8498C186.481 51.4598 186.93 52.1698 187.25 52.9798C187.56 53.7898 187.72 54.6598 187.72 55.5898C187.72 56.5198 187.56 57.4198 187.25 58.2298Z" fill="#E0B853"/>
<path d="M201.85 57.2298H207.34V57.3298C207.34 58.3098 207.1 59.1698 206.61 59.9198C206.12 60.6698 205.46 61.2398 204.64 61.6498C203.81 62.0598 202.9 62.2598 201.91 62.2598C200.72 62.2598 199.67 61.9798 198.76 61.4298C197.84 60.8798 197.13 60.0998 196.6 59.0898C196.07 58.0798 195.82 56.9198 195.82 55.5898C195.82 54.2598 196.07 53.1198 196.58 52.1198C197.09 51.1298 197.8 50.3498 198.71 49.7798C199.63 49.2198 200.68 48.9398 201.87 48.9398C203.06 48.9398 204.1 49.2398 204.94 49.8298C205.78 50.4198 206.4 51.2098 206.78 52.1898L209.31 50.9898C209.01 50.1698 208.51 49.4098 207.82 48.6998C207.13 47.9898 206.28 47.4198 205.27 46.9898C204.26 46.5598 203.13 46.3398 201.87 46.3398C200.61 46.3398 199.4 46.5698 198.32 47.0298C197.24 47.4898 196.3 48.1298 195.5 48.9598C194.7 49.7898 194.09 50.7698 193.65 51.8998C193.21 53.0298 192.99 54.2598 192.99 55.5998C192.99 56.9398 193.22 58.1798 193.67 59.3098C194.12 60.4298 194.75 61.4098 195.55 62.2398C196.35 63.0698 197.3 63.7098 198.38 64.1798C199.46 64.6498 200.65 64.8798 201.93 64.8798C203.01 64.8798 204.04 64.6998 205.04 64.3298C206.04 63.9598 206.92 63.4198 207.7 62.6998C208.48 61.9798 209.09 61.1098 209.54 60.0598C209.99 59.0198 210.21 57.8398 210.21 56.5198V54.8298H201.88V57.2398L201.85 57.2298Z" fill="#E0B853"/>
<path d="M215.651 46.6299H212.811V64.5699H215.651V46.6299Z" fill="#E0B853"/>
<path d="M219.12 64.5799H230.92V62.0499H221.96V56.8399H230.44V54.3199H221.96V49.1599H230.92V46.6299H219.12V64.5799Z" fill="#E0B853"/>
<path d="M241.42 54.8496L238.27 53.8596C237.53 53.6296 236.98 53.2996 236.61 52.8496C236.24 52.3996 236.06 51.8896 236.06 51.3096C236.06 50.8096 236.18 50.3796 236.43 50.0096C236.68 49.6396 237.03 49.3596 237.48 49.1596C237.93 48.9596 238.45 48.8596 239.05 48.8596C240.03 48.8596 240.89 49.1096 241.63 49.6196C242.37 50.1296 242.92 50.8496 243.29 51.7996L245.65 50.7896C245.36 49.9196 244.9 49.1596 244.27 48.4896C243.64 47.8196 242.88 47.2996 241.99 46.9196C241.1 46.5396 240.13 46.3496 239.05 46.3496C237.91 46.3496 236.9 46.5696 236.03 46.9996C235.16 47.4296 234.47 48.0396 233.98 48.8096C233.49 49.5796 233.25 50.4596 233.25 51.4596C233.25 52.6196 233.6 53.6296 234.3 54.4896C235 55.3596 236.02 55.9996 237.37 56.4196L240.77 57.4796C241.48 57.6896 242.02 57.9896 242.38 58.3796C242.75 58.7696 242.93 59.2896 242.93 59.9296C242.93 60.4096 242.8 60.8396 242.53 61.2096C242.26 61.5796 241.9 61.8696 241.42 62.0696C240.95 62.2696 240.39 62.3696 239.75 62.3696C238.66 62.3696 237.69 62.0696 236.86 61.4796C236.03 60.8896 235.39 60.0396 234.96 58.9296L232.55 59.9396C232.85 60.8996 233.35 61.7596 234.03 62.4996C234.71 63.2396 235.53 63.8296 236.49 64.2496C237.44 64.6696 238.49 64.8796 239.63 64.8796C240.83 64.8796 241.89 64.6596 242.81 64.2196C243.73 63.7796 244.44 63.1696 244.97 62.3996C245.49 61.6296 245.75 60.7496 245.75 59.7496C245.75 58.5396 245.39 57.5396 244.67 56.7296C243.95 55.9196 242.87 55.2996 241.44 54.8596L241.42 54.8496Z" fill="#E0B853"/>
<path d="M33.4005 64.89L29.2805 58.04L25.0305 50.97L20.7905 58.81L17.4905 64.9H9.0705L12.1405 59.49L16.7705 51.32L19.3605 46.76L20.8705 44.09L21.1605 43.58L23.9005 38.74H23.8305C22.6405 38.99 21.4205 39.1 20.1905 39.1C9.60049 39.1 0.980469 30.33 0.980469 19.55C0.980469 8.77 9.62051 0 20.2105 0C28.4005 0 35.6905 5.29 38.3605 13.16C39.0605 15.21 39.4105 17.37 39.4105 19.55C39.4105 22.27 38.8705 24.9 37.8105 27.36L36.1205 30.48V30.5L29.0505 43.54L28.9405 43.74L30.9305 47.26L40.8805 64.89H33.4005ZM19.9205 7.15C13.2105 7.15 7.74048 12.71 7.74048 19.54C7.74048 26.37 13.2005 31.93 19.9205 31.93C26.6405 31.93 32.1005 26.37 32.1005 19.54C32.1005 12.71 26.6405 7.15 19.9205 7.15Z" fill="#E0B853"/>
<path d="M14.5002 47.1498L9.93024 55.4398L3.49023 43.5498H12.5502L14.4902 47.1398L14.5002 47.1498Z" fill="#E0B853"/>
<path d="M46.1604 43.5498L39.7104 55.4498L35.1904 47.0998L37.1204 43.5498H46.1704H46.1604Z" fill="#E0B853"/>
<path d="M28.7404 64.9198H21.9404L23.0004 62.8398L25.3104 58.2998L27.1704 61.8898L28.7404 64.9198Z" fill="#E0B853"/>
</svg>
