<svg width="246" height="65" viewBox="0 0 246 65" fill="none" xmlns="http://www.w3.org/2000/svg">
<path d="M68.9601 46.6499L64.6501 59.3899L60.3201 46.6499H57.6201L63.2301 62.4899H66.0402L71.6602 46.6499H68.9601Z" fill="#E0B853"/>
<path d="M76.4197 46.6499L70.8496 62.4899H73.5297L74.7596 58.9399H81.1996L82.3896 62.4899H85.0896L79.5197 46.6499H76.4197ZM75.4896 56.6999L77.9896 49.4299L80.4496 56.6999H75.4996H75.4896Z" fill="#E0B853"/>
<path d="M90.7103 49.4299C91.5203 48.9299 92.4504 48.6899 93.5004 48.6899C94.5504 48.6899 95.4503 48.9599 96.1903 49.4899C96.9303 50.0199 97.4704 50.7099 97.8004 51.5399L100.08 50.4999C99.8103 49.7799 99.3704 49.0999 98.7604 48.4799C98.1504 47.8599 97.4004 47.3499 96.5104 46.9699C95.6204 46.5899 94.6204 46.3999 93.5104 46.3999C92.4004 46.3999 91.3304 46.5999 90.3704 47.0099C89.4104 47.4099 88.5804 47.9799 87.8804 48.7099C87.1804 49.4399 86.6304 50.2999 86.2404 51.2999C85.8504 52.2999 85.6504 53.3899 85.6504 54.5599C85.6504 55.7299 85.8404 56.8399 86.2404 57.8399C86.6304 58.8299 87.1804 59.6899 87.8904 60.4199C88.6004 61.1499 89.4304 61.7199 90.3804 62.1299C91.3304 62.5399 92.3704 62.7499 93.5104 62.7499C94.6504 62.7499 95.6204 62.5599 96.5104 62.1799C97.4004 61.7999 98.1504 61.2899 98.7604 60.6699C99.3704 60.0499 99.8103 59.3799 100.08 58.6699L97.8004 57.6099C97.4704 58.4599 96.9403 59.1499 96.1903 59.6699C95.4503 60.1999 94.5504 60.4599 93.5004 60.4599C92.4504 60.4599 91.5203 60.2099 90.7103 59.7299C89.9003 59.2399 89.2703 58.5499 88.8303 57.6699C88.3903 56.7899 88.1604 55.7499 88.1604 54.5799C88.1604 53.4099 88.3803 52.3999 88.8303 51.5199C89.2803 50.6399 89.9003 49.9499 90.7103 49.4599V49.4299Z" fill="#E0B853"/>
<path d="M106.58 46.6499L101.01 62.4899H103.69L104.92 58.9399H111.36L112.55 62.4899H115.25L109.68 46.6499H106.57H106.58ZM105.64 56.6999L108.14 49.4299L110.6 56.6999H105.65H105.64Z" fill="#E0B853"/>
<path d="M114.45 48.8799H118.64V62.4899H121.15V48.8799H125.29V46.6499H114.45V48.8799Z" fill="#E0B853"/>
<path d="M129.46 46.6499H126.95V62.4899H129.46V46.6499Z" fill="#E0B853"/>
<path d="M146.041 48.7201C145.301 47.9901 144.43 47.4201 143.45 47.0101C142.46 46.6001 141.39 46.3901 140.23 46.3901C139.07 46.3901 137.99 46.5901 137.01 47.0001C136.02 47.4001 135.161 47.9801 134.411 48.7101C133.671 49.4501 133.091 50.3101 132.681 51.3101C132.271 52.3001 132.061 53.3901 132.061 54.5601C132.061 55.7301 132.27 56.8201 132.69 57.8101C133.11 58.8001 133.691 59.6701 134.421 60.4101C135.161 61.1501 136.02 61.7201 137.01 62.1301C138 62.5401 139.07 62.7501 140.22 62.7501C141.37 62.7501 142.441 62.5401 143.431 62.1301C144.421 61.7201 145.291 61.1401 146.021 60.4101C146.751 59.6801 147.34 58.8101 147.75 57.8101C148.17 56.8201 148.38 55.7301 148.38 54.5601C148.38 53.3901 148.17 52.3001 147.76 51.3101C147.35 50.3201 146.771 49.4601 146.031 48.7301L146.041 48.7201ZM145.47 56.8901C145.19 57.6101 144.801 58.2301 144.291 58.7601C143.781 59.2901 143.18 59.7101 142.49 60.0001C141.8 60.3001 141.05 60.4501 140.23 60.4501C139.41 60.4501 138.67 60.3001 137.98 60.0001C137.29 59.7001 136.681 59.2901 136.171 58.7601C135.661 58.2301 135.27 57.6001 134.99 56.8901C134.71 56.1801 134.58 55.4001 134.58 54.5601C134.58 53.7201 134.72 52.9701 134.99 52.2501C135.26 51.5301 135.661 50.9101 136.171 50.3701C136.681 49.8301 137.28 49.4201 137.97 49.1301C138.66 48.8401 139.41 48.6901 140.23 48.6901C141.05 48.6901 141.81 48.8401 142.49 49.1301C143.18 49.4201 143.781 49.8401 144.291 50.3701C144.801 50.9001 145.19 51.5401 145.47 52.2501C145.75 52.9701 145.891 53.7401 145.891 54.5601C145.891 55.3801 145.75 56.1701 145.47 56.8901Z" fill="#E0B853"/>
<path d="M160.92 57.5699L153.01 46.6499H150.99V62.4899H153.49V51.4099L161.41 62.4899H163.43V46.6499H160.92V57.5699Z" fill="#E0B853"/>
<path d="M179.82 53.6199H172.51V46.6499H170V62.4899H172.51V55.8799H179.82V62.4899H182.33V46.6499H179.82V53.6199Z" fill="#E0B853"/>
<path d="M198.91 48.7201C198.17 47.9901 197.3 47.4201 196.31 47.0101C195.32 46.6001 194.25 46.3901 193.09 46.3901C191.93 46.3901 190.85 46.5901 189.87 47.0001C188.88 47.4001 188.02 47.9801 187.28 48.7101C186.54 49.4501 185.96 50.3101 185.55 51.3101C185.14 52.3001 184.93 53.3901 184.93 54.5601C184.93 55.7301 185.14 56.8201 185.56 57.8101C185.98 58.8001 186.55 59.6701 187.29 60.4101C188.03 61.1501 188.89 61.7201 189.89 62.1301C190.88 62.5401 191.95 62.7501 193.1 62.7501C194.25 62.7501 195.32 62.5401 196.31 62.1301C197.3 61.7201 198.17 61.1401 198.91 60.4101C199.65 59.6701 200.22 58.8101 200.64 57.8101C201.06 56.8201 201.27 55.7301 201.27 54.5601C201.27 53.3901 201.06 52.3001 200.65 51.3101C200.24 50.3201 199.66 49.4601 198.92 48.7301L198.91 48.7201ZM198.34 56.8901C198.06 57.6101 197.67 58.2301 197.16 58.7601C196.65 59.2901 196.05 59.7101 195.36 60.0001C194.67 60.2901 193.92 60.4501 193.1 60.4501C192.28 60.4501 191.54 60.3001 190.85 60.0001C190.15 59.7001 189.55 59.2901 189.04 58.7601C188.53 58.2301 188.14 57.6001 187.86 56.8901C187.58 56.1801 187.44 55.4001 187.44 54.5601C187.44 53.7201 187.58 52.9701 187.86 52.2501C188.14 51.5301 188.53 50.9101 189.04 50.3701C189.55 49.8301 190.15 49.4201 190.84 49.1301C191.53 48.8401 192.28 48.6901 193.11 48.6901C193.94 48.6901 194.69 48.8401 195.37 49.1301C196.05 49.4201 196.66 49.8401 197.17 50.3701C197.68 50.9001 198.07 51.5401 198.35 52.2501C198.63 52.9701 198.76 53.7401 198.76 54.5601C198.76 55.3801 198.62 56.1701 198.35 56.8901H198.34Z" fill="#E0B853"/>
<path d="M211.56 54.0799L206.19 46.6499H203.86V62.4899H206.37V51.0299L211.38 58.0199H211.64L216.68 51.1499V62.4899H219.17V46.6499H216.83L211.56 54.0799Z" fill="#E0B853"/>
<path d="M222.23 62.4899H232.651V60.2599H224.74V55.6599H232.23V53.4299H224.74V48.8799H232.651V46.6499H222.23V62.4899Z" fill="#E0B853"/>
<path d="M241.921 53.8999L239.13 53.0299C238.48 52.8299 237.991 52.5299 237.661 52.1399C237.331 51.7399 237.171 51.2899 237.171 50.7799C237.171 50.3399 237.28 49.9599 237.5 49.6299C237.72 49.2999 238.031 49.0499 238.421 48.8799C238.811 48.7099 239.281 48.6099 239.801 48.6099C240.661 48.6099 241.42 48.8299 242.08 49.2799C242.73 49.7299 243.221 50.3699 243.551 51.1999L245.63 50.3099C245.37 49.5399 244.971 48.8699 244.411 48.2799C243.851 47.6899 243.181 47.2299 242.401 46.8999C241.621 46.5699 240.761 46.3999 239.811 46.3999C238.801 46.3999 237.911 46.5899 237.141 46.9699C236.371 47.3499 235.77 47.8799 235.33 48.5699C234.89 49.2599 234.681 50.0299 234.681 50.9099C234.681 51.9299 234.99 52.8199 235.61 53.5899C236.23 54.3599 237.13 54.9199 238.32 55.2899L241.32 56.2299C241.94 56.4099 242.42 56.6799 242.74 57.0299C243.06 57.3799 243.23 57.8399 243.23 58.3999C243.23 58.8299 243.11 59.1999 242.88 59.5299C242.65 59.8599 242.321 60.1099 241.901 60.2899C241.481 60.4699 240.991 60.5599 240.421 60.5599C239.461 60.5599 238.61 60.2999 237.87 59.7699C237.13 59.2499 236.57 58.4899 236.19 57.5199L234.061 58.4099C234.331 59.2599 234.77 60.0199 235.37 60.6699C235.97 61.3199 236.701 61.8399 237.541 62.2099C238.381 62.5799 239.31 62.7599 240.32 62.7599C241.38 62.7599 242.32 62.5699 243.13 62.1799C243.94 61.7899 244.571 61.2499 245.031 60.5699C245.491 59.8899 245.72 59.1099 245.72 58.2299C245.72 57.1699 245.4 56.2799 244.76 55.5599C244.12 54.8399 243.171 54.2899 241.911 53.9099L241.921 53.8999Z" fill="#E0B853"/>
<path d="M91.8701 27.4401L84.9801 0.580078H78.1602L71.2701 27.4401L64.6301 0.580078H57.6201L67.2201 36.3401H74.7101L81.5701 10.6701L88.4401 36.3401H95.9202L105.52 0.580078H98.5201L91.8701 27.4401Z" fill="#E0B853"/>
<path d="M114.84 0.580078H108.26V36.3401H114.84V0.580078Z" fill="#E0B853"/>
<path d="M142.63 23.5701L125.59 0.580078H120.45V36.3401H127.03V12.9601L143.97 36.3401H149.16V0.580078H142.63V23.5701Z" fill="#E0B853"/>
<path d="M171.671 21.9398H181.94V22.0798C181.94 23.8998 181.471 25.4798 180.521 26.8098C179.581 28.1398 178.341 29.1598 176.801 29.8798C175.261 30.5998 173.601 30.9598 171.811 30.9598C169.571 30.9598 167.59 30.4298 165.86 29.3798C164.13 28.3198 162.781 26.8598 161.801 24.9898C160.821 23.1198 160.34 20.9298 160.34 18.4398C160.34 15.9498 160.81 13.7698 161.76 11.9098C162.7 10.0498 164.03 8.59977 165.74 7.53977C167.45 6.47977 169.431 5.95977 171.671 5.95977C173.911 5.95977 175.89 6.53977 177.5 7.70977C179.12 8.87977 180.261 10.3698 180.931 12.1998L186.74 9.41977C186.13 7.71977 185.12 6.15977 183.72 4.73977C182.31 3.31977 180.591 2.16977 178.561 1.30977C176.531 0.449766 174.231 0.00976562 171.671 0.00976562C169.111 0.00976562 166.701 0.469766 164.541 1.37977C162.381 2.28977 160.49 3.56977 158.88 5.21977C157.26 6.86977 156.01 8.81977 155.11 11.0798C154.21 13.3398 153.771 15.7898 153.771 18.4498C153.771 21.1098 154.231 23.5498 155.141 25.7898C156.051 28.0298 157.33 29.9798 158.98 31.6498C160.63 33.3098 162.54 34.6098 164.72 35.5398C166.9 36.4698 169.26 36.9298 171.82 36.9298C173.93 36.9298 175.98 36.5798 177.96 35.8698C179.94 35.1698 181.731 34.0898 183.311 32.6498C184.891 31.2098 186.15 29.4298 187.08 27.3198C188.01 25.2098 188.47 22.7798 188.47 20.0198V16.4198H171.671V21.9398Z" fill="#E0B853"/>
<path d="M209.11 16.5598L202.531 14.4998C201.221 14.0798 200.24 13.4998 199.6 12.7498C198.96 11.9998 198.641 11.1298 198.641 10.1298C198.641 9.26977 198.87 8.49977 199.34 7.82977C199.81 7.15977 200.451 6.63977 201.281 6.26977C202.111 5.89977 203.071 5.71977 204.161 5.71977C205.981 5.71977 207.611 6.21977 209.031 7.20977C210.451 8.19977 211.501 9.57977 212.171 11.3398L217.59 8.93976C216.95 7.14977 215.98 5.58977 214.69 4.25977C213.39 2.92977 211.851 1.88977 210.061 1.13977C208.271 0.389766 206.301 0.00976562 204.161 0.00976562C201.821 0.00976562 199.75 0.449766 197.94 1.32977C196.13 2.20977 194.72 3.42977 193.69 4.99977C192.67 6.56977 192.151 8.37977 192.151 10.4198C192.151 12.7898 192.861 14.8298 194.291 16.5398C195.721 18.2498 197.82 19.5398 200.6 20.3998L207.46 22.6098C208.71 23.0298 209.641 23.5698 210.271 24.2398C210.901 24.9098 211.21 25.7798 211.21 26.8298C211.21 27.7298 210.98 28.4898 210.51 29.1298C210.05 29.7698 209.391 30.2698 208.541 30.6398C207.691 31.0098 206.691 31.1898 205.541 31.1898C203.491 31.1898 201.651 30.6098 200.021 29.4398C198.391 28.2698 197.141 26.6598 196.281 24.6198L190.811 26.9698C191.481 28.9498 192.511 30.6898 193.911 32.1798C195.301 33.6698 196.971 34.8298 198.901 35.6598C200.841 36.4898 202.921 36.9098 205.161 36.9098C207.661 36.9098 209.83 36.4598 211.69 35.5698C213.55 34.6698 215.001 33.4398 216.061 31.8698C217.121 30.2998 217.641 28.4898 217.641 26.4498C217.641 24.0498 216.93 22.0298 215.5 20.3998C214.08 18.7698 211.94 17.4898 209.09 16.5598H209.11Z" fill="#E0B853"/>
<path d="M244.12 5.78C243.05 4 241.58 2.6 239.73 1.56C237.87 0.52 235.73 0 233.3 0C230.87 0 228.76 0.52 226.89 1.56C225.02 2.6 223.55 4.02 222.47 5.81C221.4 7.6 220.86 9.67 220.86 12C220.86 14.14 221.35 16.07 222.32 17.78C223.3 19.49 224.63 20.84 226.33 21.84C228.03 22.83 229.96 23.33 232.14 23.33C232.65 23.33 233.13 23.29 233.58 23.21L223.36 36.34H231.18L241.16 23.38C242.38 21.75 243.31 20.28 243.97 18.99C244.63 17.69 245.08 16.47 245.34 15.32C245.6 14.17 245.72 13.02 245.72 11.86C245.72 9.59 245.18 7.56 244.11 5.79L244.12 5.78ZM238.36 15.02C237.83 15.92 237.14 16.61 236.27 17.11C235.41 17.61 234.41 17.85 233.29 17.85C232.17 17.85 231.21 17.6 230.31 17.11C229.41 16.61 228.7 15.92 228.17 15.02C227.64 14.12 227.38 13.08 227.38 11.9C227.38 10.72 227.64 9.67 228.17 8.76C228.7 7.85 229.41 7.14 230.31 6.65C231.21 6.15 232.2 5.91 233.29 5.91C234.38 5.91 235.36 6.16 236.24 6.65C237.12 7.15 237.82 7.85 238.35 8.76C238.88 9.67 239.14 10.72 239.14 11.9C239.14 13.08 238.88 14.12 238.35 15.02H238.36Z" fill="#E0B853"/>
<path d="M33.4005 64.89L29.2805 58.04L25.0305 50.97L20.7905 58.81L17.4905 64.9H9.07043L12.1405 59.49L16.7705 51.32L19.3605 46.76L20.8705 44.09L21.1605 43.58L23.9005 38.74H23.8304C22.6404 38.99 21.4204 39.1 20.1904 39.1C9.60043 39.1 0.980469 30.33 0.980469 19.55C0.980469 8.77 9.62045 0 20.2104 0C28.4004 0 35.6905 5.29 38.3605 13.16C39.0605 15.21 39.4105 17.37 39.4105 19.55C39.4105 22.27 38.8705 24.9 37.8105 27.36L36.1205 30.48V30.5L29.0505 43.54L28.9404 43.74L30.9305 47.26L40.8805 64.89H33.4005ZM19.9205 7.15C13.2105 7.15 7.74048 12.71 7.74048 19.54C7.74048 26.37 13.2005 31.93 19.9205 31.93C26.6405 31.93 32.1005 26.37 32.1005 19.54C32.1005 12.71 26.6405 7.15 19.9205 7.15Z" fill="#E0B853"/>
<path d="M14.5002 47.1498L9.9303 55.4398L3.49023 43.5498H12.5503L14.4902 47.1398L14.5002 47.1498Z" fill="#E0B853"/>
<path d="M46.1605 43.5498L39.7104 55.4498L35.1904 47.0998L37.1205 43.5498H46.1705H46.1605Z" fill="#E0B853"/>
<path d="M28.7405 64.9198H21.9404L23.0005 62.8398L25.3105 58.2998L27.1705 61.8898L28.7405 64.9198Z" fill="#E0B853"/>
</svg>
